<?xml version="1.0" standalone="no"?>
<!DOCTYPE svg PUBLIC "-//W3C//DTD SVG 20010904//EN"
 "http://www.w3.org/TR/2001/REC-SVG-20010904/DTD/svg10.dtd">
<svg version="1.0" xmlns="http://www.w3.org/2000/svg"
 width="552.000000pt" height="552.000000pt" viewBox="0 0 552.000000 552.000000"
 preserveAspectRatio="xMidYMid meet">

<g transform="translate(0.000000,552.000000) scale(0.100000,-0.100000)"
fill="#000000" stroke="none">
<path d="M4455 5125 c-60 -12 -193 -39 -295 -59 -308 -61 -524 -106 -528 -111
-2 -2 21 -40 52 -84 l57 -80 -74 -34 c-107 -50 -209 -111 -317 -191 -108 -80
-353 -319 -425 -416 -27 -36 -52 -67 -55 -70 -14 -11 -148 -218 -182 -280 -38
-69 -83 -191 -92 -250 -6 -34 -11 -38 -94 -74 -270 -119 -474 -253 -628 -412
-313 -325 -428 -737 -302 -1092 l29 -84 -36 -37 c-206 -204 -352 -583 -330
-850 15 -178 36 -221 107 -221 29 0 45 7 63 26 29 31 29 33 13 160 -26 215 56
488 206 683 67 87 66 87 112 38 88 -92 140 -130 240 -180 267 -132 570 -139
923 -21 151 50 253 107 332 184 106 104 157 226 144 345 -18 174 -167 327
-370 380 -246 64 -782 -72 -1128 -286 -45 -28 -92 -60 -104 -72 -13 -11 -25
-18 -29 -15 -13 14 -35 120 -40 203 -7 99 6 201 38 300 96 294 357 559 724
736 68 32 126 59 131 59 5 0 16 -21 25 -47 41 -116 179 -230 318 -264 87 -21
222 -16 305 11 169 55 308 159 361 267 23 49 30 140 14 189 -20 59 -92 130
-158 154 -127 48 -327 45 -527 -7 -158 -40 -148 -39 -140 -12 13 45 113 217
184 316 92 128 243 297 356 397 131 115 318 236 455 292 l54 22 69 -99 c37
-54 72 -99 76 -99 5 0 30 26 57 58 27 31 61 71 75 87 49 56 454 530 468 548
18 22 7 22 -134 -8z m-1068 -1656 c65 -25 79 -65 42 -125 -61 -99 -257 -184
-392 -170 -76 8 -134 34 -190 85 -45 41 -79 114 -61 130 23 22 260 83 369 95
60 6 200 -3 232 -15z m-354 -1273 c212 -104 219 -306 15 -445 -145 -98 -413
-171 -628 -171 -196 1 -395 76 -522 199 l-73 71 34 30 c90 78 324 198 496 255
61 20 169 50 240 66 110 24 149 28 255 26 115 -2 130 -4 183 -31z"/>
</g>
</svg>
